<?xml version="1.0" standalone="no"?>
<!DOCTYPE svg PUBLIC "-//W3C//DTD SVG 20010904//EN"
 "http://www.w3.org/TR/2001/REC-SVG-20010904/DTD/svg10.dtd">
<svg version="1.0" xmlns="http://www.w3.org/2000/svg"
 width="187.000000pt" height="69.000000pt" viewBox="0 0 187.000000 69.000000"
 preserveAspectRatio="xMidYMid meet">

<g transform="translate(0.000000,69.000000) scale(0.100000,-0.100000)"
fill="#000000" stroke="none">
<path d="M16 564 c-14 -13 -16 -48 -16 -224 0 -199 1 -210 20 -220 14 -8 26
-8 40 0 18 9 20 21 20 100 l0 90 48 0 c51 0 72 12 72 42 0 23 -30 38 -79 38
l-41 0 0 55 0 56 93 -3 92 -3 5 -184 c4 -157 7 -185 22 -194 12 -8 21 -7 32 2
12 10 16 41 18 154 l3 142 93 -147 c79 -124 106 -158 127 -158 2 0 11 7 19 16
13 13 16 45 16 195 l0 179 63 0 c75 0 107 -18 107 -59 0 -36 -17 -50 -70 -59
-84 -14 -77 -72 9 -72 87 0 149 64 138 142 -12 88 -61 120 -193 126 -137 6
-133 11 -136 -160 l-3 -142 -84 134 c-46 74 -93 143 -104 153 -27 24 -287 26
-311 1z"/>
<path d="M977 573 c-11 -10 -8 -93 3 -93 6 0 10 9 10 19 0 14 8 21 28 24 l27
4 -27 2 c-40 2 -37 31 3 31 17 0 28 4 24 10 -7 11 -58 14 -68 3z"/>
<path d="M1077 573 c-11 -10 -8 -93 3 -93 6 0 10 7 10 15 0 8 4 15 9 15 5 0
14 -7 21 -15 7 -8 17 -15 22 -15 6 0 4 7 -3 17 -11 13 -11 17 -1 20 6 3 12 13
12 23 0 28 -54 52 -73 33z m49 -24 c3 -6 0 -15 -7 -20 -22 -14 -29 -11 -29 11
0 21 24 27 36 9z"/>
<path d="M1179 578 c0 -2 -2 -24 -3 -50 l-2 -48 41 2 c38 1 38 1 7 5 -38 5
-38 24 -1 34 l24 6 -24 4 c-38 6 -38 29 -1 29 18 0 29 4 25 10 -5 8 -63 15
-66 8z"/>
<path d="M1277 574 c-11 -11 -9 -94 3 -94 6 0 10 15 10 33 l1 32 27 -33 c15
-18 30 -32 35 -32 4 0 7 23 7 51 0 34 -4 48 -11 43 -6 -3 -9 -17 -6 -30 6 -32
-1 -30 -32 7 -14 17 -29 27 -34 23z"/>
<path d="M1386 571 c-3 -5 3 -11 13 -14 14 -3 21 -16 24 -43 l4 -39 1 38 c2
30 7 40 22 44 30 8 13 23 -25 23 -19 0 -36 -4 -39 -9z"/>
<path d="M1497 573 c-4 -3 -7 -26 -7 -50 l0 -43 38 1 c30 2 32 3 10 6 -36 6
-36 30 0 36 l27 4 -27 2 c-36 1 -39 31 -3 31 14 0 25 5 25 10 0 11 -53 14 -63
3z"/>
<path d="M970 400 c0 -27 5 -50 10 -50 6 0 10 15 10 32 l0 33 23 -32 c31 -46
47 -42 47 11 0 25 -4 48 -10 51 -6 4 -10 -7 -10 -27 l-1 -33 -28 33 c-15 17
-31 32 -34 32 -4 0 -7 -22 -7 -50z"/>
<path d="M1100 403 c-11 -25 -17 -49 -14 -52 4 -3 9 0 11 7 6 15 45 16 61 0 6
-6 14 -9 17 -6 7 7 -36 98 -47 98 -4 0 -16 -21 -28 -47z m40 2 c0 -8 -7 -15
-15 -15 -9 0 -12 6 -9 15 4 8 10 15 15 15 5 0 9 -7 9 -15z"/>
<path d="M1210 430 c-23 -23 -24 -33 -10 -61 8 -13 21 -19 45 -19 19 0 35 5
35 10 0 6 -10 8 -23 5 -15 -4 -28 0 -37 10 -19 23 0 51 34 48 29 -2 35 11 10
21 -25 9 -33 7 -54 -14z"/>
<path d="M1310 401 c0 -28 5 -51 10 -51 6 0 10 20 10 44 0 25 -4 48 -10 51 -6
4 -10 -13 -10 -44z"/>
<path d="M1370 430 c-38 -38 -15 -84 40 -78 28 2 37 9 45 32 8 24 6 31 -14 47
-30 24 -46 24 -71 -1z m64 -22 c8 -14 7 -21 -6 -34 -30 -30 -75 9 -48 42 16
18 39 15 54 -8z"/>
<path d="M1487 444 c-11 -11 -9 -94 3 -94 6 0 10 15 10 33 l1 32 27 -33 c15
-18 30 -32 35 -32 4 0 7 23 7 51 0 31 -4 48 -10 44 -5 -3 -10 -18 -10 -33 l0
-26 -28 33 c-15 18 -30 29 -35 25z"/>
<path d="M1612 400 c-12 -27 -17 -50 -12 -50 5 0 12 5 15 10 9 14 52 12 58 -2
2 -7 8 -10 11 -6 9 8 -30 98 -42 98 -5 0 -19 -22 -30 -50z m37 -9 c-15 -5 -22
6 -14 19 6 9 10 9 16 -1 5 -8 4 -15 -2 -18z"/>
<path d="M1718 444 c-5 -4 -8 -27 -8 -51 l0 -43 43 1 c38 1 39 2 12 8 -27 5
-31 11 -35 49 -3 24 -8 40 -12 36z"/>
<path d="M1823 313 c-21 -8 -14 -33 12 -45 28 -13 23 -32 -8 -24 -14 3 -17 2
-10 -5 15 -15 47 -7 51 13 2 12 -5 19 -22 24 -34 8 -33 22 2 26 23 3 24 4 7 9
-11 3 -26 4 -32 2z"/>
<path d="M972 273 c3 -35 6 -38 32 -38 62 0 59 67 -3 73 -32 3 -32 3 -29 -35z
m56 15 c14 -14 -2 -48 -23 -48 -10 0 -15 10 -15 30 0 31 17 39 38 18z"/>
<path d="M1070 270 c0 -39 1 -40 33 -39 30 2 30 2 5 6 -34 5 -36 20 -5 33 l22
9 -22 0 c-32 1 -29 19 5 24 25 4 25 4 -5 6 -32 1 -33 0 -33 -39z"/>
<path d="M1191 268 c1 -24 3 -35 6 -26 2 9 14 18 26 20 14 2 23 11 25 26 3 19
-1 22 -27 22 -30 0 -31 -1 -30 -42z m49 17 c0 -8 -9 -15 -20 -15 -11 0 -20 7
-20 15 0 8 9 15 20 15 11 0 20 -7 20 -15z"/>
<path d="M1270 268 c1 -40 2 -42 15 -24 14 19 15 19 37 0 20 -17 21 -17 8 -1
-11 15 -11 20 0 27 22 14 3 40 -30 40 -29 0 -30 -2 -30 -42z m55 23 c3 -5 1
-13 -5 -16 -15 -9 -43 3 -35 15 8 13 32 13 40 1z"/>
<path d="M1360 270 c0 -39 1 -40 33 -39 27 1 29 2 9 7 -13 4 -23 12 -23 17 0
6 10 13 23 17 22 6 21 6 -4 7 -16 1 -28 5 -28 10 0 5 12 12 28 14 25 4 25 4
-5 6 -32 1 -33 0 -33 -39z"/>
<path d="M1440 270 c0 -22 5 -40 10 -40 6 0 10 6 10 14 0 7 10 17 23 21 l22 8
-22 4 c-13 2 -23 8 -23 13 0 5 10 11 23 13 16 3 13 5 -10 6 -32 1 -33 0 -33
-39z"/>
<path d="M1523 273 c3 -36 5 -38 37 -39 27 -1 28 -1 8 3 -34 5 -37 30 -5 36
l22 4 -22 2 c-13 0 -23 5 -23 10 0 5 10 12 23 14 16 3 14 5 -10 6 -31 1 -32 0
-30 -36z"/>
<path d="M1613 270 c0 -25 2 -35 4 -22 2 12 2 32 0 45 -2 12 -4 2 -4 -23z"/>
<path d="M1652 303 c11 -3 18 -17 21 -41 l4 -37 1 37 c1 25 7 38 20 41 9 3 -1
5 -23 5 -22 0 -32 -2 -23 -5z"/>
<path d="M1727 275 c-20 -42 -22 -54 -5 -37 16 16 55 15 61 0 4 -10 6 -10 6 0
1 17 -27 72 -37 72 -5 0 -16 -16 -25 -35z m33 0 c0 -8 -4 -15 -10 -15 -5 0
-10 7 -10 15 0 8 5 15 10 15 6 0 10 -7 10 -15z"/>
<path d="M974 186 c-3 -8 -4 -27 -2 -43 2 -22 9 -29 31 -31 15 -2 27 1 27 7 0
6 -9 11 -20 11 -27 0 -25 18 3 23 l22 4 -22 2 c-13 0 -23 7 -23 15 0 8 10 17
23 19 19 4 18 4 -6 6 -16 0 -30 -5 -33 -13z"/>
<path d="M1097 193 c-11 -10 -8 -73 3 -73 6 0 10 5 10 10 0 6 6 10 14 10 7 0
19 7 26 15 10 12 10 18 0 30 -13 16 -42 20 -53 8z m38 -23 c0 -7 -6 -15 -12
-17 -8 -3 -13 4 -13 17 0 13 5 20 13 18 6 -3 12 -11 12 -18z"/>
<path d="M1181 158 c0 -24 3 -37 6 -30 7 17 24 15 38 -4 10 -14 12 -10 11 27
-1 40 -3 44 -28 47 -27 3 -28 2 -27 -40z m44 22 c3 -5 4 -14 0 -20 -8 -13 -35
-1 -35 16 0 16 26 19 35 4z"/>
<path d="M1267 193 c-2 -5 -3 -24 -3 -43 1 -31 5 -35 29 -38 15 -2 27 1 27 7
0 6 -9 11 -20 11 -27 0 -25 18 3 23 l22 4 -22 2 c-33 2 -29 29 5 34 26 4 25 4
-5 6 -17 0 -34 -2 -36 -6z"/>
<path d="M1351 158 c1 -24 3 -35 6 -26 2 9 14 19 26 21 21 4 21 4 -1 6 -30 1
-24 23 9 32 21 6 21 7 -8 8 -32 1 -33 0 -32 -41z"/>
<path d="M1432 158 c3 -39 6 -43 31 -46 15 -2 27 1 27 7 0 6 -11 11 -25 11
-31 0 -33 17 -2 23 l22 4 -23 2 c-30 1 -24 23 9 32 21 6 20 7 -9 8 -33 1 -33
1 -30 -41z"/>
<path d="M1510 161 c0 -23 5 -41 10 -41 6 0 10 15 10 34 0 19 -4 38 -10 41 -6
4 -10 -10 -10 -34z"/>
<path d="M1558 193 c6 -2 12 -20 12 -39 0 -19 4 -34 9 -34 4 0 6 12 3 27 -3
18 1 30 13 40 17 12 16 13 -16 12 -19 0 -28 -3 -21 -6z"/>
<path d="M1636 184 c-21 -21 -20 -37 3 -58 26 -23 59 -13 67 21 11 43 -38 69
-70 37z m54 -13 c7 -15 6 -23 -6 -35 -8 -9 -17 -16 -19 -16 -2 0 -11 7 -19 16
-18 18 -6 54 19 54 8 0 19 -9 25 -19z"/>
<path d="M1734 185 c-7 -18 3 -35 22 -35 9 0 14 -6 11 -12 -2 -7 -13 -11 -23
-10 -16 3 -17 1 -6 -9 9 -10 17 -11 29 -3 27 17 26 33 -2 44 -15 6 -23 15 -20
21 4 6 14 8 22 5 8 -3 11 -1 8 4 -9 15 -35 12 -41 -5z"/>
<path d="M644 155 c-10 -26 7 -35 66 -35 62 0 80 11 60 35 -17 21 -118 21
-126 0z"/>
</g>
</svg>
